<?xml version="1.0" encoding="utf-8"?>
<!-- Generator: Adobe Illustrator 16.0.0, SVG Export Plug-In . SVG Version: 6.00 Build 0)  -->
<!DOCTYPE svg PUBLIC "-//W3C//DTD SVG 1.1//EN" "http://www.w3.org/Graphics/SVG/1.1/DTD/svg11.dtd">
<svg version="1.1" id="Layer_1" xmlns="http://www.w3.org/2000/svg" xmlns:xlink="http://www.w3.org/1999/xlink" x="0px" y="0px"
	 width="48px" height="48px" viewBox="0 0 48 48" enable-background="new 0 0 48 48" xml:space="preserve">
<g>
	<path d="M24,48c-0.203,0-0.403-0.062-0.574-0.181C23.159,47.632,23,47.326,23,47V22.435c0-0.406,0.246-0.772,0.622-0.926
		l18.289-7.477c0.309-0.126,0.66-0.09,0.937,0.096c0.276,0.186,0.442,0.497,0.442,0.83v8.19c0,0.552-0.447,1-1,1s-1-0.448-1-1
		v-6.701L25,23.106v22.466l16.289-5.919v-2.955c0-0.553,0.447-1,1-1s1,0.447,1,1v3.655c0,0.421-0.263,0.796-0.658,0.939
		l-18.289,6.646C24.23,47.98,24.115,48,24,48z"/>
	<path d="M24,18.395c-4.977,0-9.026-4.125-9.026-9.197S19.023,0.001,24,0.001c4.977,0,9.025,4.126,9.025,9.197
		S28.977,18.395,24,18.395z M24,2.001c-3.874,0-7.026,3.229-7.026,7.197c0,3.968,3.152,7.197,7.026,7.197s7.025-3.229,7.025-7.197
		C31.025,5.229,27.874,2.001,24,2.001z"/>
	<path d="M24,48c-0.115,0-0.23-0.02-0.341-0.061l-18.29-6.646c-0.396-0.144-0.659-0.519-0.659-0.939v-3.655c0-0.553,0.448-1,1-1
		s1,0.447,1,1v2.955L23,45.572V23.106L6.71,16.447v6.701c0,0.552-0.448,1-1,1s-1-0.448-1-1v-8.19c0-0.333,0.166-0.645,0.442-0.83
		c0.277-0.186,0.627-0.222,0.936-0.096l18.29,7.477C24.754,21.663,25,22.029,25,22.435V47c0,0.326-0.159,0.632-0.426,0.819
		C24.403,47.938,24.203,48,24,48z"/>
	<g>
		<path d="M42.456,37.705c-1.019,0-2.037-0.342-2.9-0.991c-0.959-0.72-1.944-2.174-2.242-3.311
			c-0.161-0.601-0.252-2.105,0.471-2.987c-0.138-0.43-0.165-0.883-0.105-1.274c0.135-0.923,0.604-1.327,1.102-1.51
			c-0.091-0.691,0.011-1.503,0.729-2.212c0.405-0.396,0.9-0.594,1.404-0.648c-0.038-1.102,0.35-2.164,1.117-2.93
			c0.202-0.362,0.62-0.572,1.049-0.497c1.44,0.258,2.711,2.056,3.066,2.601c0.826,1.272,1.328,2.403,1.628,3.666
			c0.702,2.941-0.374,5.592-1.519,7.797c-0.59,1.134-1.586,1.909-2.806,2.187C43.123,37.669,42.789,37.705,42.456,37.705z
			 M39.279,31.798c-0.085,0.268-0.108,0.811-0.032,1.093c0.184,0.701,0.917,1.779,1.511,2.225c0.664,0.501,1.508,0.698,2.25,0.528
			c0.45-0.102,1.071-0.386,1.474-1.158c1.023-1.972,1.896-4.113,1.348-6.41c-0.248-1.046-0.655-1.954-1.359-3.039
			c-0.408-0.626-0.898-1.156-1.277-1.458c-0.38,0.627-0.325,1.443-0.068,2.027c0.172,0.392,0.075,0.85-0.24,1.139
			c-0.313,0.29-0.778,0.347-1.154,0.142c-0.294-0.16-0.674-0.179-0.818-0.038c-0.197,0.194-0.257,0.385,0.063,1.274
			c0.107,0.297,0.068,0.627-0.106,0.891c-0.174,0.264-0.463,0.429-0.777,0.446l-0.219,0.011c-0.068,0.003-0.149,0.007-0.221,0.012
			c-0.02,0.227,0.072,0.451,0.136,0.494c0.385,0.265,0.535,0.761,0.362,1.194C40.004,31.536,39.66,31.775,39.279,31.798z"/>
		<path d="M5.543,37.705c-0.333,0-0.666-0.036-0.994-0.11c-1.22-0.276-2.216-1.053-2.806-2.186c-1.145-2.203-2.22-4.852-1.52-7.798
			c0.305-1.271,0.808-2.402,1.631-3.666c0.351-0.542,1.614-2.341,3.063-2.601c0.432-0.08,0.848,0.135,1.05,0.498
			c0.767,0.767,1.155,1.828,1.116,2.929c0.505,0.055,1.001,0.252,1.403,0.649c0.722,0.71,0.823,1.521,0.732,2.212
			c0.498,0.183,0.967,0.588,1.104,1.513c0.057,0.391,0.028,0.842-0.11,1.27c0.719,0.877,0.634,2.382,0.474,2.989
			c-0.305,1.141-1.29,2.593-2.245,3.311C7.581,37.363,6.562,37.705,5.543,37.705z M4.806,23.578
			c-0.38,0.301-0.868,0.831-1.273,1.457c-0.704,1.081-1.111,1.99-1.363,3.042c-0.547,2.3,0.325,4.44,1.349,6.41
			c0.402,0.771,1.023,1.056,1.473,1.157c0.744,0.17,1.585-0.027,2.249-0.527c0.592-0.445,1.327-1.525,1.514-2.224
			c0.076-0.288,0.052-0.827-0.034-1.095c-0.381-0.021-0.726-0.261-0.872-0.627c-0.173-0.434-0.023-0.93,0.361-1.194
			c0.064-0.044,0.158-0.271,0.14-0.495c-0.073-0.005-0.155-0.009-0.225-0.012l-0.219-0.011c-0.316-0.018-0.604-0.184-0.779-0.447
			c-0.174-0.265-0.213-0.596-0.104-0.893c0.308-0.846,0.27-1.067,0.061-1.273c-0.141-0.139-0.522-0.121-0.817,0.041
			c-0.377,0.204-0.84,0.147-1.155-0.144c-0.314-0.29-0.41-0.748-0.237-1.139C5.131,25.021,5.186,24.205,4.806,23.578z"/>
	</g>
	<path fill="none" stroke="#000000" stroke-width="2" stroke-linecap="round" stroke-linejoin="round" stroke-miterlimit="10" d="
		M5.71,36.984"/>
	<path fill="none" stroke="#000000" stroke-width="2" stroke-linecap="round" stroke-linejoin="round" stroke-miterlimit="10" d="
		M5.71,23.53"/>
</g>
</svg>
